# xmcd CD database file
#
# Track frame offsets:
#	187
#	12000
#	22830
#	35017
#	46562
#	60695
#	73912
#	89662
#	113895
#	128425
#	144990
#	161857
#	176532
#
# Disc length: 2524 seconds
#
# Revision: 3
# Processed by: cddbd v1.5.2PL0 Copyright (c) Steve Scherf et al.
# Submitted via: CDex 1.51
#
DISCID=a609da0d
DTITLE=Chuck Berry - Hail! Hail! Rock 'N' Roll (motion picture soundtrack)
DYEAR=1987
DGENRE=Rock and Roll
TTITLE0=Maybellene
TTITLE1=Around And Around
TTITLE2=Sweet Little Sixteen
TTITLE3=Brown Eyed Handsome Man with Robert Cray
TTITLE4=Memphis Tennessee
TTITLE5=Too Much Monkey Business
TTITLE6=Back In The U.S.A. with Linda Ronstadt
TTITLE7=Wee Wee Hours with Eric Clapton
TTITLE8=Johnny B. Goode with Julian Lennon
TTITLE9=Little Queenie
TTITLE10=Rock And Roll Music with Etta James
TTITLE11=Roll over Beethoven
TTITLE12=I'm Through With Love
EXTD=YEAR: 1987
EXTT0=
EXTT1=
EXTT2=
EXTT3=
EXTT4=
EXTT5=
EXTT6=
EXTT7=
EXTT8=
EXTT9=
EXTT10=
EXTT11=
EXTT12=
PLAYORDER=
